<?xml version="1.0" encoding="UTF-8"?><svg id="Layer_2" xmlns="http://www.w3.org/2000/svg" viewBox="0 0 145.36 183.35"><defs><style>.cls-1{fill:none;stroke:#231f20;stroke-linecap:round;stroke-linejoin:round;stroke-width:6px;}</style></defs><g id="Layer_2-2"><path class="cls-1" d="M142.36,72.67c0,22.99-11.15,43.32-28.31,55.99-2.28,1.65-4.18,3.74-5.64,6.02H36.91c-1.58-2.34-3.55-4.5-5.83-6.21C11.32,113.78-.33,88.89,3.85,61.59,8.6,31.06,33.99,6.87,64.65,3.45c42.06-4.69,77.71,28.12,77.71,69.23Z"/><path class="cls-1" d="M98.02,167.68c3.48,0,6.33-2.85,6.33-6.33v-12.79c0-4.94,1.39-9.82,4.05-13.87H36.96c2.6,4.05,4.05,8.93,4.05,13.87v12.79c0,3.48,2.85,6.33,6.33,6.33h50.67Z"/><path class="cls-1" d="M98.02,167.68h-50.67l4.56,9.18c1.08,2.15,3.29,3.48,5.7,3.48h30.15c2.41,0,4.62-1.33,5.7-3.48l4.56-9.18"/><line class="cls-1" x1="41.01" y1="151.85" x2="104.35" y2="151.85"/><line class="cls-1" x1="72.68" y1="134.68" x2="72.68" y2="84.25"/><polyline class="cls-1" points="54.77 66.34 72.68 84.25 90.6 66.34"/><path class="cls-1" d="M87.78,180.35h-30.17c-2.4,0-4.59-1.36-5.67-3.5l-4.58-9.17h50.67l-4.58,9.17c-1.07,2.15-3.27,3.5-5.66,3.5Z"/><path class="cls-1" d="M104.35,151.85v9.5c0,3.48-2.85,6.33-6.33,6.33h-50.67c-3.48,0-6.33-2.85-6.33-6.33v-9.5h63.34Z"/></g></svg>