<?xml version="1.0" encoding="UTF-8"?><svg id="Layer_2" xmlns="http://www.w3.org/2000/svg" viewBox="0 0 168.15 181.88"><defs><style>.cls-1{fill:none;stroke:#231f20;stroke-linecap:round;stroke-linejoin:round;stroke-width:6px;}</style></defs><g id="Layer_2-2"><ellipse class="cls-1" cx="84.08" cy="90.94" rx="87.94" ry="46.56" transform="translate(-32.27 48.49) rotate(-27.2)"/><path class="cls-1" d="M99.3,47c3.51,1.5,6.68,2.38,10.19,4.19,17.5,8.99,26.74,16.64,37.13,28.47"/><path class="cls-1" d="M20.15,100.6c2.65,2.75,3.7,3.83,6.63,6.48,14.6,13.19,26.64,21.77,41.39,27.3"/><path class="cls-1" d="M38.02,77.2c-.7,6.05-.5,8.18-.5,14.63,0,4.72-.16,6.54.22,11.06"/><path class="cls-1" d="M130.14,75.75c.7,6.05.49,8.74.49,15.18,0,4.72-.11,6.54-.49,11.06"/><path class="cls-1" d="M71.91,76.9c0-.13,0-.25,0-.38-.02-3.08.65-6.06,2.27-8.41,2.12-3.08,5.61-5.01,9.32-5.19.06,0,.11,0,.17,0,.14,0,.27-.01.41-.01h.07c.14,0,.27,0,.41.01.06,0,.11,0,.17,0,3.71.18,7.21,2.11,9.32,5.19,1.62,2.35,2.29,5.34,2.27,8.41,0,.13,0,.25,0,.38,0,.07,0,.13,0,.2-.06,2.18-.48,4.39-1.16,6.46-.04.11-.07.22-.11.33-.02.06-.04.13-.07.19-.57,1.63-1.3,3.15-2.15,4.45-.04.06-.08.12-.12.18-.03.04-.06.09-.09.13-.08.12-.16.24-.25.36-.05.08-.11.16-.16.23-.16.22-.34.45-.52.69t0,0c-.13.16-.26.32-.4.48-.03.04-.06.08-.1.12-.1.11-.19.23-.3.34-.07.08-.13.15-.2.23-.05.06-.1.11-.15.16-1.79,1.92-4.07,3.61-6.39,3.61h-.07c-2.33,0-4.61-1.69-6.39-3.61-.05-.05-.1-.11-.15-.16-.07-.08-.14-.15-.2-.23-.1-.11-.2-.23-.3-.34-.03-.04-.06-.08-.1-.12-.14-.16-.27-.32-.39-.48t0,0c-.18-.23-.36-.46-.52-.69-.06-.08-.11-.16-.16-.23-.09-.12-.17-.24-.25-.36-.03-.04-.06-.09-.09-.13-.04-.06-.08-.12-.12-.18-.85-1.3-1.57-2.81-2.15-4.45-.02-.06-.04-.13-.07-.19-.04-.11-.07-.22-.11-.33-.68-2.07-1.09-4.27-1.15-6.45,0-.06,0-.13,0-.2Z"/><path class="cls-1" d="M110.26,110.55c-1.62-9.18-2.84-11.43-3.78-12.91-.94-1.48-12.63-7.37-12.63-7.37-3.23,5.56-9.27,6.04-9.78,6.07h-.04s-6.4-.25-9.77-6.06c0,0-11.65,5.88-12.6,7.36-.94,1.48-2.16,3.73-3.78,12.91,0,0,16.25,5.03,27.27,5.03s25.09-5.03,25.09-5.03Z"/><path class="cls-1" d="M39.78,63.9c1.95-11.38,5.09-21.74,9.15-30.57"/><path class="cls-1" d="M48.92,33.33C57.46,14.76,70.04,3,84.08,3s26.62,11.76,35.16,30.34"/><path class="cls-1" d="M119.24,148.54c-8.54,18.57-21.12,30.33-35.16,30.33s-26.62-11.76-35.16-30.34"/><path class="cls-1" d="M84.08,141.45c12.35,4.26,24.35,6.62,35.16,7.1"/><path class="cls-1" d="M155,90.94c9.84,14.48,13.05,28.98,7.29,40.19-6.42,12.49-22.63,18.31-43.05,17.41"/><path class="cls-1" d="M13.15,90.94C3.31,76.45.1,61.96,5.86,50.74c6.42-12.49,22.63-18.32,43.06-17.42"/></g></svg>