<?xml version="1.0" encoding="UTF-8"?><svg id="Layer_2" xmlns="http://www.w3.org/2000/svg" viewBox="0 0 165.72 165.67"><defs><style>.cls-1{fill:none;stroke:#231f20;stroke-linecap:round;stroke-linejoin:round;stroke-width:6px;}</style></defs><g id="Layer_2-2"><path class="cls-1" d="M101.44,34.26c-7.25-4.22-15.68-6.64-24.68-6.64-27.13,0-49.08,21.95-49.08,49.08s21.95,49.14,49.08,49.14,49.14-22,49.14-49.14"/><path class="cls-1" d="M115.15,13.8c-11.19-6.85-24.35-10.8-38.44-10.8C36.01,3,3,36,3,76.71s33.01,73.76,73.71,73.76,73.76-33,73.76-73.76"/><line class="cls-1" x1="132.03" y1="162.67" x2="116.25" y2="138.97"/><line class="cls-1" x1="37.31" y1="138.97" x2="21.53" y2="162.67"/><line class="cls-1" x1="145.29" y1="37.85" x2="76.72" y2="77.02"/><polyline class="cls-1" points="146.64 50.19 130.19 46.51 134.24 28.34"/><polyline class="cls-1" points="162.72 40.98 145.29 37.85 148.54 20.17"/><polyline class="cls-1" points="130.74 59.28 115.15 55.1 120.06 36.44"/><path class="cls-1" d="M88.82,55.34c-3.56-2.01-7.66-3.16-12.04-3.16-13.55,0-24.54,10.98-24.54,24.54s10.98,24.54,24.54,24.54,24.54-10.98,24.54-24.54"/></g></svg>